<svg version="1.1" id="Layer_1" xmlns="http://www.w3.org/2000/svg" xmlns:xlink="http://www.w3.org/1999/xlink" x="0px" y="0px"
	 width="100%" viewBox="0 0 225 225" enable-background="new 0 0 225 225" xml:space="preserve">
<path fill="#2B457C" opacity="1.000000" stroke="none" 
	d="
M100.000000,1.000000 
	C107.687576,1.000000 115.375153,1.000000 123.791412,1.307917 
	C138.426956,2.667778 151.379089,7.126386 163.873260,12.978247 
	C177.826416,19.513453 189.142456,29.643864 199.229416,40.975544 
	C209.415817,52.418938 216.737503,65.730873 220.966400,80.549644 
	C222.891586,87.295853 224.336990,94.178978 226.000000,101.000000 
	C226.000000,109.020897 226.000000,117.041801 225.640442,125.716553 
	C224.873245,128.822617 224.563354,131.295761 224.043488,133.723938 
	C214.262329,179.409363 186.932220,208.901184 142.159119,222.144791 
	C136.550049,223.803925 130.724991,224.732788 125.000000,226.000000 
	C117.312424,226.000000 109.624847,226.000000 101.283508,225.640442 
	C55.185711,220.253601 16.870453,187.345093 4.981392,143.080566 
	C3.549271,137.748581 2.322140,132.361526 1.000000,127.000000 
	C1.000000,118.312439 1.000000,109.624870 1.366644,100.318909 
	C5.171209,76.279602 13.995048,55.293453 30.326153,37.896000 
	C46.307926,20.870687 64.979469,8.417080 88.603104,4.575881 
	C92.493042,3.943378 96.205513,2.219496 100.000000,1.000000 
M90.960953,25.391018 
	C91.412796,23.830524 91.864639,22.270033 92.626152,19.640068 
	C94.119781,21.475389 95.499054,22.476624 95.907120,23.781563 
	C99.109863,34.023598 106.487350,38.860065 116.572182,40.993465 
	C120.965302,41.922806 124.313354,41.335861 127.533089,38.342499 
	C130.208313,35.855370 133.120392,33.623001 135.927551,31.277781 
	C136.386551,31.600552 136.845566,31.923323 137.304565,32.246094 
	C136.088623,35.190186 134.662842,38.066742 133.690170,41.089123 
	C126.333160,63.949272 124.192810,62.334953 140.166992,80.760605 
	C140.276047,80.886375 140.391312,81.007790 140.512604,81.121758 
	C143.762665,84.175873 143.305939,86.821823 139.690094,89.206482 
	C132.759766,93.777008 125.550842,94.564240 117.903992,91.095818 
	C110.086052,87.549812 103.172089,92.299713 104.143082,100.888054 
	C104.560982,104.584328 106.080040,108.283264 107.705345,111.691788 
	C112.391518,121.519485 113.770126,131.940536 114.652794,142.648743 
	C115.455482,152.386688 116.801552,162.167679 118.999519,171.677414 
	C121.087692,180.712128 124.917549,189.330872 127.358749,198.301987 
	C129.081467,204.632706 129.763840,211.246521 130.908569,217.721985 
	C136.023849,217.594971 136.003372,217.594238 136.170898,212.948471 
	C136.254929,210.618301 136.189621,208.248062 136.601486,205.970001 
	C139.380051,190.601578 142.145889,175.228790 145.172928,159.908218 
	C146.680725,152.276871 143.954819,147.355927 137.984650,142.340500 
	C130.134964,135.746124 123.631004,127.549805 116.548370,120.042328 
	C116.629745,119.514809 116.711128,118.987289 116.792511,118.459770 
	C126.325317,120.244034 132.705078,115.277550 138.688477,109.434456 
	C139.028305,109.102585 139.547318,108.909271 140.017593,108.762817 
	C144.742142,107.291466 147.335220,103.892891 148.902237,99.375336 
	C149.256348,98.354469 150.506561,97.644424 151.344269,96.791306 
	C152.018570,97.643791 152.868088,98.410027 153.337463,99.363403 
	C155.607071,103.973526 157.991379,108.546089 159.917862,113.300980 
	C161.889069,118.166252 163.268982,123.267540 165.102142,128.193161 
	C167.390228,134.341248 168.646591,141.400620 172.563766,146.292618 
	C178.576172,153.801224 182.917053,161.680573 185.107086,170.894592 
	C186.394714,176.311874 187.583282,181.752701 188.874680,187.439651 
	C222.360657,155.808594 233.117554,95.097160 197.642807,48.976269 
	C161.794495,2.369706 95.376572,-6.443491 49.251122,29.113228 
	C1.200759,66.153809 -3.390405,130.366959 25.028946,171.322296 
	C25.028946,166.115860 24.720098,161.316971 25.094009,156.571869 
	C25.844753,147.044617 33.936985,141.906143 44.017281,145.273972 
	C42.142609,146.523621 40.889851,147.553223 39.476505,148.263138 
	C35.754089,150.132904 33.581207,153.033035 33.088383,157.174835 
	C32.011761,166.222900 42.135258,184.247208 50.215282,188.154373 
	C49.822926,170.380188 49.210999,152.421677 49.101223,134.460083 
	C49.019897,121.154457 50.998871,108.189270 58.627033,96.767868 
	C62.880981,90.398560 67.752426,84.387047 71.460007,77.721695 
	C75.792328,69.933182 79.706688,61.810303 82.796341,53.460239 
	C86.076088,44.596401 88.175903,35.295971 90.960953,25.391018 
z"/>
<path fill="#FDFDFE" opacity="1.000000" stroke="none" 
	d="
M226.000000,100.531342 
	C224.336990,94.178978 222.891586,87.295853 220.966400,80.549644 
	C216.737503,65.730873 209.415817,52.418938 199.229416,40.975544 
	C189.142456,29.643864 177.826416,19.513453 163.873260,12.978247 
	C151.379089,7.126386 138.426956,2.667778 124.260056,1.307917 
	C157.926208,1.000000 191.852417,1.000000 226.000000,1.000000 
	C226.000000,34.020565 226.000000,67.041626 226.000000,100.531342 
z"/>
<path fill="#FEFEFE" opacity="1.000000" stroke="none" 
	d="
M125.468658,226.000000 
	C130.724991,224.732788 136.550049,223.803925 142.159119,222.144791 
	C186.932220,208.901184 214.262329,179.409363 224.043488,133.723938 
	C224.563354,131.295761 224.873245,128.822617 225.640442,126.185196 
	C226.000000,159.260635 226.000000,192.521255 226.000000,226.000000 
	C192.646088,226.000000 159.291702,226.000000 125.468658,226.000000 
z"/>
<path fill="#FEFEFE" opacity="1.000000" stroke="none" 
	d="
M99.531342,1.000000 
	C96.205513,2.219496 92.493042,3.943378 88.603104,4.575881 
	C64.979469,8.417080 46.307926,20.870687 30.326153,37.896000 
	C13.995048,55.293453 5.171209,76.279602 1.366644,99.850250 
	C1.000000,67.073067 1.000000,34.146133 1.000000,1.000000 
	C33.687233,1.000000 66.374962,1.000000 99.531342,1.000000 
z"/>
<path fill="#FEFEFE" opacity="1.000000" stroke="none" 
	d="
M1.000000,127.468658 
	C2.322140,132.361526 3.549271,137.748581 4.981392,143.080566 
	C16.870453,187.345093 55.185711,220.253601 100.814865,225.640442 
	C67.740105,226.000000 34.480202,226.000000 1.000000,226.000000 
	C1.000000,193.312775 1.000000,160.625046 1.000000,127.468658 
z"/>
<path fill="#C9D9AC" opacity="1.000000" stroke="none" 
	d="
M90.875977,25.788609 
	C88.175903,35.295971 86.076088,44.596401 82.796341,53.460239 
	C79.706688,61.810303 75.792328,69.933182 71.460007,77.721695 
	C67.752426,84.387047 62.880981,90.398560 58.627033,96.767868 
	C50.998871,108.189270 49.019897,121.154457 49.101223,134.460083 
	C49.210999,152.421677 49.822926,170.380188 50.215282,188.154373 
	C42.135258,184.247208 32.011761,166.222900 33.088383,157.174835 
	C33.581207,153.033035 35.754089,150.132904 39.476505,148.263138 
	C40.889851,147.553223 42.142609,146.523621 44.017281,145.273972 
	C33.936985,141.906143 25.844753,147.044617 25.094009,156.571869 
	C24.720098,161.316971 25.028946,166.115860 25.028946,171.322296 
	C-3.390405,130.366959 1.200759,66.153809 49.251122,29.113228 
	C95.376572,-6.443491 161.794495,2.369706 197.642807,48.976269 
	C233.117554,95.097160 222.360657,155.808594 188.874680,187.439651 
	C187.583282,181.752701 186.394714,176.311874 185.107086,170.894592 
	C182.917053,161.680573 178.576172,153.801224 172.563766,146.292618 
	C168.646591,141.400620 167.390228,134.341248 165.102142,128.193161 
	C163.268982,123.267540 161.889069,118.166252 159.917862,113.300980 
	C157.991379,108.546089 155.607071,103.973526 153.337463,99.363403 
	C152.868088,98.410027 152.018570,97.643791 151.344269,96.791306 
	C150.506561,97.644424 149.256348,98.354469 148.902237,99.375336 
	C147.335220,103.892891 144.742142,107.291466 140.017593,108.762817 
	C139.547318,108.909271 139.028305,109.102585 138.688477,109.434456 
	C132.705078,115.277550 126.325317,120.244034 116.792511,118.459770 
	C116.711128,118.987289 116.629745,119.514809 116.548370,120.042328 
	C123.631004,127.549805 130.134964,135.746124 137.984650,142.340500 
	C143.954819,147.355927 146.680725,152.276871 145.172928,159.908218 
	C142.145889,175.228790 139.380051,190.601578 136.601486,205.970001 
	C136.189621,208.248062 136.254929,210.618301 136.170898,212.948471 
	C136.003372,217.594238 136.023849,217.594971 130.908569,217.721985 
	C129.763840,211.246521 129.081467,204.632706 127.358749,198.301987 
	C124.917549,189.330872 121.087692,180.712128 118.999519,171.677414 
	C116.801552,162.167679 115.455482,152.386688 114.652794,142.648743 
	C113.770126,131.940536 112.391518,121.519485 107.705345,111.691788 
	C106.080040,108.283264 104.560982,104.584328 104.143082,100.888054 
	C103.172089,92.299713 110.086052,87.549812 117.903992,91.095818 
	C125.550842,94.564240 132.759766,93.777008 139.690094,89.206482 
	C143.305939,86.821823 143.762665,84.175873 140.512604,81.121758 
	C140.391312,81.007790 140.276047,80.886375 140.166992,80.760605 
	C124.192810,62.334953 126.333160,63.949272 133.690170,41.089123 
	C134.662842,38.066742 136.088623,35.190186 137.304565,32.246094 
	C136.845566,31.923323 136.386551,31.600552 135.927551,31.277781 
	C133.120392,33.623001 130.208313,35.855370 127.533089,38.342499 
	C124.313354,41.335861 120.965302,41.922806 116.572182,40.993465 
	C106.487350,38.860065 99.109863,34.023598 95.907120,23.781563 
	C95.499054,22.476624 94.119781,21.475389 92.626152,19.640068 
	C91.864639,22.270033 91.412796,23.830524 90.875977,25.788609 
z"/>
</svg>